<svg xmlns="http://www.w3.org/2000/svg" width="156.344" height="36.687" viewBox="0 0 156.344 36.687">
  <defs>
    <style>
      .cls-1 {
        fill: #fff;
        fill-rule: evenodd;
      }
    </style>
  </defs>
  <path id="tabale" class="cls-1" d="M138.294,355.342h-3.285v4.905h3.285v11.565c0,2.789.135,9.044,7.335,9.044a13.419,13.419,0,0,0,4.455-.585l-0.09-5.085a9.645,9.645,0,0,1-2.16.225c-2.025,0-2.97-1.259-2.97-4.274v-10.89H150.4v-4.905h-5.535v-6.524l-6.57,1.934v4.59Zm40.364,9.945c0-5.49-2.115-10.44-9.9-10.44a17.642,17.642,0,0,0-8.685,2.115l1.26,4.32a12.216,12.216,0,0,1,6.165-1.71c3.645,0,4.5,1.89,4.5,4.365-7.965,0-13.68,3.015-13.68,9.45a7.278,7.278,0,0,0,7.515,7.514,8.043,8.043,0,0,0,6.66-3.105h0.135l0.405,2.61h5.984a37.835,37.835,0,0,1-.36-5.94v-9.179Zm-6.479,6.525a4.168,4.168,0,0,1-4.185,4.319c-1.665,0-3.15-1.035-3.15-3.419,0-3.645,3.735-4.5,7.335-4.5v3.6Zm24.479-13.455V344.228H190v28.979c0,2.564-.09,5.4-0.18,7.2h5.669l0.315-3.465h0.135a7.237,7.237,0,0,0,6.75,3.96c5.175,0,10.26-4.41,10.26-13.5,0-7.47-3.69-12.6-9.225-12.6a7.9,7.9,0,0,0-6.975,3.555h-0.09Zm0,7.155c0-3.24,2.205-5.4,4.5-5.4,3.42,0,5.085,3.33,5.085,7.6,0,4.86-1.845,7.874-5.085,7.874-2.655,0-4.5-2.339-4.5-5.174v-4.9Zm45.134-.225c0-5.49-2.115-10.44-9.9-10.44a17.642,17.642,0,0,0-8.685,2.115l1.26,4.32a12.216,12.216,0,0,1,6.165-1.71c3.645,0,4.5,1.89,4.5,4.365-7.965,0-13.68,3.015-13.68,9.45a7.278,7.278,0,0,0,7.515,7.514,8.043,8.043,0,0,0,6.66-3.105h0.135l0.405,2.61h5.984a37.835,37.835,0,0,1-.36-5.94v-9.179Zm-6.479,6.525a4.168,4.168,0,0,1-4.185,4.319c-1.665,0-3.15-1.035-3.15-3.419,0-3.645,3.735-4.5,7.335-4.5v3.6Zm24.479-27.584h-6.659v36.178h6.659V344.228Zm29.34,30.6a18.251,18.251,0,0,1-6.12,1.035c-3.6,0-6.66-1.709-6.84-5.984h14.984a15.379,15.379,0,0,0,.18-2.655c0-8.1-3.959-12.42-10.034-12.42-7.335,0-11.475,6.21-11.475,13.41,0,7.784,4.41,12.644,12.15,12.644a21.2,21.2,0,0,0,8.1-1.44Zm-12.96-9.584c0.18-2.475,1.53-5.805,4.725-5.805,3.285,0,4.32,3.195,4.275,5.805h-9Z" transform="translate(-135 -344.219)"/>
</svg>
